<?xml version="1.0" standalone="no"?>
<!DOCTYPE svg PUBLIC "-//W3C//DTD SVG 20010904//EN"
 "http://www.w3.org/TR/2001/REC-SVG-20010904/DTD/svg10.dtd">
<svg version="1.0" xmlns="http://www.w3.org/2000/svg"
 width="896.000000pt" height="896.000000pt" viewBox="0 0 896.000000 896.000000"
 preserveAspectRatio="xMidYMid meet">
<metadata>
Created by potrace 1.14, written by Peter Selinger 2001-2017
</metadata>
<g transform="translate(0.000000,896.000000) scale(0.100000,-0.100000)"
fill="#000000" stroke="none">
<path d="M3266 8460 c-191 -24 -381 -98 -521 -203 -85 -64 -235 -224 -235
-251 0 -3 9 -6 20 -6 87 0 193 -150 241 -339 28 -110 24 -255 -9 -317 -29 -57
-73 -91 -127 -100 -64 -9 -110 2 -151 38 -52 46 -79 100 -118 237 -48 168 -49
168 -67 36 -21 -156 -1 -388 50 -585 64 -243 185 -515 338 -754 l44 -68 -25
-102 c-50 -193 -69 -448 -47 -638 4 -38 7 -68 7 -68 -1 0 -46 16 -101 36 -55
20 -153 48 -217 62 l-117 27 -68 84 c-37 47 -90 100 -118 118 -41 28 -57 48
-87 111 -71 147 -111 270 -162 505 l-32 148 -56 -47 c-53 -44 -55 -48 -47 -78
14 -47 11 -99 -7 -124 -30 -44 -66 -16 -85 66 -7 29 -16 52 -21 52 -14 0 -168
-82 -168 -89 0 -27 36 -271 56 -381 34 -188 105 -469 159 -633 31 -96 45 -154
45 -193 0 -103 173 -488 250 -558 37 -34 47 -37 84 -34 22 3 48 8 57 12 13 6
30 -14 77 -91 161 -260 399 -537 647 -751 56 -48 59 -53 47 -73 -51 -82 -150
-300 -188 -415 -39 -116 -46 -146 -41 -190 6 -54 32 -117 75 -173 l25 -33 -17
-68 c-35 -146 -13 -276 60 -351 l36 -36 -126 -73 c-70 -40 -129 -77 -132 -82
-4 -6 -30 -89 -59 -185 l-53 -176 -101 -101 -101 -101 0 -92 c0 -85 2 -94 23
-106 12 -8 85 -22 163 -30 l141 -16 112 -71 113 -71 88 7 c83 6 89 5 101 -15
15 -22 29 -28 29 -10 0 6 27 73 60 151 33 77 60 152 60 167 0 15 -9 54 -20 85
-17 50 -18 68 -10 125 5 36 10 86 10 110 0 30 4 42 13 39 6 -3 66 -22 132 -42
66 -21 131 -42 145 -47 17 -6 48 -44 85 -102 87 -134 76 -127 206 -127 l110 0
66 -70 c98 -105 136 -110 226 -31 36 30 58 41 94 46 65 8 95 24 114 63 l17 32
91 -89 91 -89 -1 -58 c0 -33 -10 -89 -22 -126 -20 -61 -32 -77 -137 -184
l-115 -117 -68 143 -68 143 -53 -7 c-97 -11 -128 -26 -163 -80 -35 -54 -54
-69 -75 -61 -8 3 -70 66 -139 141 -167 181 -150 184 -283 -56 -57 -102 -110
-186 -118 -188 -9 -2 -62 20 -117 48 -56 27 -101 48 -101 46 0 -14 182 -146
201 -146 13 0 142 16 287 36 l262 37 203 -52 c111 -28 213 -51 227 -51 14 0
93 30 175 66 83 37 236 93 340 126 105 33 201 65 215 71 24 12 25 15 28 132
l3 120 55 21 55 22 127 -60 c164 -78 363 -144 492 -163 56 -9 105 -13 108 -10
14 14 -32 117 -73 163 -56 62 -109 85 -279 122 -211 45 -275 76 -412 197 -85
74 -93 89 -57 106 15 6 35 21 44 31 14 18 21 19 55 9 22 -6 77 -11 124 -11
140 -1 282 -61 432 -181 146 -116 249 -250 280 -364 14 -55 28 -56 47 -1 25
73 -22 217 -121 371 l-45 68 31 15 c51 24 48 62 -9 113 -35 32 -49 54 -62 97
-8 30 -24 71 -34 91 -26 52 -102 115 -167 139 -74 28 -205 46 -234 33 -19 -8
-34 -3 -88 32 -85 55 -187 106 -278 139 -62 22 -88 39 -164 109 -49 45 -100
89 -114 97 -13 8 -24 19 -24 25 0 23 63 116 139 205 45 52 91 114 102 138 19
39 20 49 10 100 -15 76 -61 170 -106 221 -37 41 -99 68 -200 87 l-37 7 8 71
c10 102 7 159 -10 201 -9 21 -16 38 -16 40 0 1 82 5 183 8 589 21 1019 181
1342 501 62 61 126 128 144 149 l31 38 116 -46 c378 -151 730 -345 1012 -557
133 -100 179 -126 170 -95 -6 18 -159 139 -288 226 -231 157 -541 321 -835
442 -133 54 -153 64 -143 74 3 4 43 -12 87 -35 137 -69 351 -110 571 -110
l115 0 160 -78 c88 -43 217 -113 287 -155 69 -42 131 -77 137 -77 31 0 2 34
-66 78 -94 59 -298 172 -379 208 l-59 27 100 13 c250 33 476 108 574 190 35
29 91 119 91 146 0 9 -5 20 -11 24 -6 3 -79 7 -163 9 -168 2 -235 14 -410 72
-104 35 -393 172 -444 211 l-23 17 45 117 c173 457 211 865 116 1239 -12 44
-18 89 -15 100 10 32 -14 209 -36 260 -27 61 -73 103 -140 126 -42 15 -61 30
-104 83 -82 101 -170 242 -335 535 -172 305 -240 413 -299 469 -35 34 -48 40
-95 44 -77 6 -128 -9 -301 -88 -83 -37 -167 -71 -187 -75 -70 -13 -129 40
-215 197 -29 52 -66 113 -83 137 -31 43 -33 43 -80 39 -33 -3 -94 -27 -195
-77 l-146 -72 -62 58 c-213 199 -508 357 -797 429 -195 48 -461 72 -604 54z
m1 -2095 c42 -14 140 -59 218 -99 83 -42 177 -83 224 -95 110 -30 275 -42 456
-35 336 14 563 -41 744 -180 84 -65 134 -127 190 -236 96 -186 137 -379 128
-594 -12 -287 -111 -512 -311 -704 -171 -164 -374 -271 -617 -324 -89 -19
-134 -22 -309 -23 -177 0 -220 3 -320 24 -305 62 -561 188 -748 366 -123 116
-194 230 -233 372 -30 110 -23 291 16 412 25 78 26 86 13 135 -18 69 -17 359
1 451 21 107 76 267 122 355 46 88 124 169 180 187 63 20 164 15 246 -12z
m-1568 -379 c49 -52 70 -216 32 -250 -29 -27 -60 -12 -83 41 -28 63 -34 148
-15 196 18 43 35 46 66 13z m141 -426 c54 -58 94 -205 71 -263 -12 -32 -31
-42 -65 -33 -61 15 -119 223 -82 294 21 40 40 40 76 2z m598 -176 c45 -13 115
-37 155 -52 60 -23 72 -31 75 -52 5 -49 -6 -52 -109 -30 -52 11 -131 23 -176
26 l-83 7 0 31 c0 17 -9 49 -21 70 l-20 38 47 -7 c27 -4 86 -18 132 -31z m106
-164 c49 -11 91 -22 93 -24 3 -2 -1 -31 -8 -63 -7 -32 -13 -105 -13 -163 1
-97 14 -170 49 -275 21 -61 -274 384 -355 535 l-12 23 78 -7 c44 -4 119 -16
168 -26z m1466 -1849 c0 -23 -16 -36 -25 -21 -9 14 1 40 15 40 5 0 10 -9 10
-19z m-50 -86 c0 -19 -20 -29 -32 -17 -8 8 -7 16 2 26 14 17 30 12 30 -9z
m827 -969 c71 -19 135 -51 163 -81 31 -33 20 -41 -30 -21 -50 20 -88 21 -42 1
17 -8 32 -19 32 -25 0 -5 -15 -10 -32 -11 -31 0 -32 -1 -10 -11 31 -15 28 -30
-5 -22 -22 6 -25 4 -20 -9 4 -11 -1 -20 -13 -27 -24 -13 -70 -13 -70 0 0 6 5
10 10 10 6 0 10 5 10 11 0 7 -11 8 -30 4 -34 -8 -40 7 -13 37 15 17 14 18 -20
18 -41 0 -49 14 -14 26 18 6 14 8 -23 11 -69 7 -100 42 -37 44 17 0 41 5 52
10 14 6 -7 8 -64 6 -56 -1 -85 2 -88 9 -10 30 157 43 244 20z m504 -213 c13
-16 12 -17 -3 -4 -17 13 -22 21 -14 21 2 0 10 -8 17 -17z"/>
<path d="M2993 5899 c-66 -19 -122 -183 -130 -380 l-6 -126 29 -22 c44 -35
104 -25 156 25 44 43 93 138 103 199 3 22 9 52 11 66 4 22 1 28 -19 33 -23 5
-47 42 -47 72 0 9 7 31 16 50 14 29 14 37 3 51 -12 13 -72 45 -81 42 -2 0 -18
-5 -35 -10z"/>
<path d="M4158 5663 c-21 -5 -76 -80 -111 -148 -41 -82 -66 -170 -78 -278 -11
-97 -11 -104 10 -144 36 -71 106 -92 179 -54 70 36 127 116 167 235 32 95 32
112 -2 128 -37 17 -67 78 -58 118 4 17 18 44 32 60 l25 30 -30 30 c-25 25 -38
30 -74 29 -24 -1 -51 -3 -60 -6z"/>
<path d="M3096 5059 c-36 -28 -36 -81 0 -114 38 -35 115 -35 149 0 34 33 31
61 -9 101 -41 41 -97 47 -140 13z"/>
<path d="M3080 4826 c14 -16 55 -49 92 -73 101 -66 111 -87 86 -192 -10 -43
-9 -53 6 -76 l17 -27 27 35 c34 45 75 78 132 108 36 19 61 23 125 24 44 0 91
-2 105 -5 22 -4 28 2 55 57 17 34 37 64 45 66 40 12 -46 5 -125 -9 -118 -22
-282 -22 -362 -1 -73 19 -146 54 -194 93 l-34 28 25 -28z"/>
<path d="M1474 7319 c-118 -45 -180 -164 -160 -303 l7 -46 31 24 32 24 89 -84
c61 -57 113 -96 161 -120 158 -77 296 -46 296 68 0 43 -10 68 -48 113 -13 16
-46 76 -72 132 -58 123 -91 168 -141 194 -49 25 -128 24 -195 -2z"/>
<path d="M1722 6521 c-63 -5 -76 -10 -92 -31 -11 -14 -20 -28 -20 -32 0 -16
-41 -18 -76 -3 -37 15 -38 15 -71 -17 -25 -24 -36 -29 -42 -20 -5 8 -21 -19
-45 -74 -20 -47 -35 -88 -33 -91 3 -2 42 21 88 52 46 30 105 62 132 70 26 8
62 26 79 40 17 15 62 42 100 61 37 19 68 39 68 44 0 6 -3 9 -7 8 -5 -1 -41 -4
-81 -7z"/>
<path d="M4967 1723 c-13 -12 -7 -21 28 -43 37 -23 65 -21 65 4 0 30 -72 60
-93 39z"/>
<path d="M5082 1719 c-13 -5 -20 -13 -17 -19 5 -8 35 0 53 15 10 9 -17 11 -36
4z"/>
<path d="M5176 1655 c-11 -8 -18 -16 -15 -18 2 -2 16 -11 32 -20 30 -20 38
-53 10 -44 -59 19 -60 19 -65 -1 -4 -16 0 -21 20 -25 37 -7 85 12 77 30 -3 9
3 22 12 29 17 13 16 16 -10 39 -32 29 -35 29 -61 10z"/>
<path d="M5095 1627 c-48 -28 -49 -29 -24 -43 34 -19 49 -17 49 5 0 11 5 23
10 26 14 9 12 25 -2 24 -7 -1 -22 -6 -33 -12z"/>
<path d="M5310 1571 c-14 -28 16 -43 80 -40 40 2 50 6 50 20 0 25 -20 36 -72
38 -38 1 -49 -2 -58 -18z"/>
</g>
</svg>
